<svg xmlns="http://www.w3.org/2000/svg" viewBox="0 -0.5 29 29" shape-rendering="crispEdges">
<metadata>Made with Pixels to Svg https://codepen.io/shshaw/pen/XbxvNj</metadata>
<path stroke="#803400" d="M0 0h7M22 0h7M0 1h1M6 1h1M8 1h1M22 1h1M28 1h1M0 2h1M2 2h3M6 2h1M22 2h1M24 2h3M28 2h1M0 3h1M2 3h3M6 3h1M22 3h1M24 3h3M28 3h1M0 4h1M2 4h3M6 4h1M8 4h1M22 4h1M24 4h3M28 4h1M0 5h1M6 5h1M22 5h1M28 5h1M0 6h7M8 6h1M10 6h1M12 6h1M14 6h1M16 6h1M18 6h1M20 6h1M22 6h7M0 8h1M6 8h1M24 8h1M27 8h1M6 10h1M6 12h1M6 14h1M6 16h1M6 18h1M1 20h1M3 20h6M20 20h5M8 21h1M20 21h1M24 21h1M0 22h7M20 22h1M22 22h1M24 22h1M0 23h1M6 23h1M20 23h1M24 23h1M0 24h1M2 24h3M6 24h1M20 24h5M0 25h1M2 25h3M6 25h1M0 26h1M2 26h3M6 26h1M0 27h1M6 27h1M0 28h7M8 28h1" />
<path stroke="#ffb37f" d="M7 0h2M21 0h1M1 1h5M7 1h1M21 1h1M23 1h5M1 2h1M5 2h1M7 2h2M21 2h1M23 2h1M27 2h1M1 3h1M5 3h1M7 3h2M21 3h1M23 3h1M27 3h1M1 4h1M5 4h1M7 4h1M21 4h1M23 4h1M27 4h1M1 5h5M7 5h2M21 5h1M23 5h5M7 6h1M9 6h1M11 6h1M13 6h1M15 6h1M17 6h1M19 6h1M21 6h1M0 7h9M21 7h8M1 8h1M5 8h1M7 8h2M21 8h3M25 8h2M28 8h1M6 9h1M6 11h1M6 13h1M6 15h1M6 17h1M6 19h1M0 20h1M2 20h1M0 21h8M21 21h3M7 22h2M21 22h1M23 22h1M1 23h5M7 23h2M21 23h3M1 24h1M5 24h1M7 24h1M1 25h1M5 25h1M7 25h1M1 26h1M5 26h1M7 26h1M1 27h5M7 27h2M7 28h1" />
<path stroke="#d77fff" d="M9 0h4M15 0h2M10 1h1M15 1h1M9 2h3M14 2h3M13 3h1M15 3h2M11 4h5M9 5h6M16 5h1M9 7h2M12 7h2M9 8h1M13 8h2M1 9h1M3 9h1M8 9h2M11 9h2M15 9h2M0 10h5M8 10h4M15 10h1M2 11h2M8 11h1M10 11h3M14 11h3M0 12h1M2 12h3M8 12h2M11 12h3M15 12h2M0 13h1M2 13h3M8 13h2M12 13h4M1 14h2M5 14h1M7 14h2M10 14h2M13 14h2M16 14h1M1 15h1M3 15h3M7 15h7M0 16h1M2 16h1M7 16h2M11 16h4M0 17h1M2 17h1M4 17h1M7 17h1M9 17h2M15 17h2M0 18h4M7 18h1M9 18h4M15 18h1M0 19h2M3 19h1M5 19h1M14 19h3M10 20h1M13 20h1M15 20h2M11 21h5M9 22h2M13 22h2M16 22h1M9 23h3M13 23h1M9 24h2M12 24h3M10 25h2M13 25h1M15 25h2M9 26h1M11 26h2M15 26h1M11 27h2M14 27h3M18 27h1M9 28h1M13 28h1M15 28h3" />
<path stroke="#580080" d="M13 0h2M9 1h1M11 1h4M16 1h1M12 2h2M9 3h4M14 3h1M9 4h2M16 4h1M15 5h1M11 7h1M14 7h3M10 8h3M15 8h2M0 9h1M2 9h1M4 9h2M7 9h1M10 9h1M13 9h2M5 10h1M7 10h1M12 10h3M16 10h1M0 11h2M4 11h2M7 11h1M9 11h1M13 11h1M1 12h1M5 12h1M7 12h1M10 12h1M14 12h1M1 13h1M5 13h1M7 13h1M10 13h2M16 13h1M0 14h1M3 14h2M9 14h1M12 14h1M15 14h1M0 15h1M2 15h1M14 15h3M1 16h1M3 16h3M9 16h2M15 16h2M1 17h1M3 17h1M5 17h1M8 17h1M11 17h4M4 18h2M8 18h1M13 18h2M16 18h1M2 19h1M4 19h1M7 19h7M9 20h1M11 20h2M14 20h1M9 21h2M16 21h1M11 22h2M15 22h1M12 23h1M14 23h3M11 24h1M15 24h2M9 25h1M12 25h1M14 25h1M17 25h1M10 26h1M13 26h2M16 26h3M9 27h2M13 27h1M17 27h1M10 28h3M14 28h1M18 28h1" />
<path stroke="#001280" d="M17 0h3M18 2h1M20 7h1M17 8h2M20 8h1M19 9h1M21 9h3M17 10h2M21 10h1M18 11h1M21 11h1M25 11h1M25 12h3M27 13h2M20 14h1M23 14h1M25 14h3M23 15h1M17 16h2M20 16h2M23 16h2M20 17h1M22 17h2M17 18h1M18 19h1M22 19h1M26 20h1M28 20h1M25 21h2M28 21h1M25 22h3M19 25h2M19 26h2M20 27h1M23 27h1M25 27h1M24 28h4" />
<path stroke="#7f91ff" d="M20 0h1M17 1h3M20 5h1M17 7h1M19 7h1M19 8h1M17 9h2M20 9h1M24 9h1M19 10h1M22 10h1M22 11h1M26 11h3M28 12h1M25 13h2M24 14h1M28 14h1M17 15h1M19 15h2M24 15h1M19 16h1M22 16h1M17 17h3M21 17h1M24 17h1M18 18h2M21 18h2M21 19h1M25 19h4M25 20h1M27 20h1M27 21h1M28 22h1M17 23h1M17 24h2M18 25h1M19 27h1M24 27h1M26 27h3M19 28h2M23 28h1M28 28h1" />
<path stroke="#800000" d="M20 1h1M19 2h2M18 3h1M20 3h1M18 4h3M17 5h2M18 7h1M2 8h1M4 8h1M27 9h2M20 10h1M27 10h1M19 11h2M23 11h1M18 12h1M20 12h1M23 12h2M17 13h4M22 13h2M21 14h2M22 15h1M25 16h3M26 17h3M23 18h2M26 18h2M20 19h1M23 19h2M18 20h1M18 21h1M19 22h1M18 23h2M8 24h1M26 24h3M21 25h1M24 25h4M8 26h1M22 26h2M25 26h2M21 27h1M21 28h1" />
<path stroke="#ff7f7f" d="M17 2h1M17 3h1M19 3h1M17 4h1M19 5h1M3 8h1M25 9h2M23 10h4M28 10h1M17 11h1M24 11h1M17 12h1M19 12h1M21 12h2M21 13h1M24 13h1M17 14h3M18 15h1M21 15h1M25 15h4M28 16h1M25 17h1M20 18h1M25 18h1M28 18h1M17 19h1M19 19h1M17 20h1M19 20h1M17 21h1M19 21h1M17 22h2M25 23h4M19 24h1M25 24h1M8 25h1M22 25h2M28 25h1M21 26h1M24 26h1M27 26h2M22 27h1M22 28h1" />
</svg>