<svg xmlns="http://www.w3.org/2000/svg" viewBox="0 -0.5 29 29" shape-rendering="crispEdges">
<metadata>Made with Pixels to Svg https://codepen.io/shshaw/pen/XbxvNj</metadata>
<path stroke="#000000" d="M0 0h7M10 0h1M12 0h2M16 0h2M19 0h2M22 0h7M0 1h1M6 1h1M8 1h1M12 1h1M14 1h4M19 1h2M22 1h1M28 1h1M0 2h1M2 2h3M6 2h1M10 2h1M13 2h2M16 2h1M19 2h1M22 2h1M24 2h3M28 2h1M0 3h1M2 3h3M6 3h1M10 3h1M12 3h4M17 3h4M22 3h1M24 3h3M28 3h1M0 4h1M2 4h3M6 4h1M8 4h2M12 4h1M14 4h1M19 4h1M22 4h1M24 4h3M28 4h1M0 5h1M6 5h1M9 5h1M11 5h1M13 5h1M18 5h2M22 5h1M28 5h1M0 6h7M8 6h1M10 6h1M12 6h1M14 6h1M16 6h1M18 6h1M20 6h1M22 6h7M9 7h1M13 7h2M16 7h5M0 8h1M2 8h1M4 8h1M6 8h1M11 8h1M14 8h2M17 8h1M24 8h1M27 8h1M5 9h1M9 9h3M14 9h2M17 9h1M22 9h1M25 9h1M28 9h1M1 10h1M3 10h1M6 10h3M10 10h1M13 10h1M17 10h1M21 10h2M24 10h1M26 10h3M1 11h2M5 11h1M11 11h1M15 11h1M17 11h2M20 11h1M27 11h1M3 12h1M6 12h3M12 12h1M16 12h1M22 12h2M25 12h1M27 12h2M0 13h3M4 13h2M9 13h2M13 13h1M15 13h2M18 13h1M20 13h3M25 13h1M28 13h1M0 14h2M4 14h3M8 14h3M14 14h3M18 14h1M21 14h1M23 14h3M27 14h2M4 15h1M7 15h1M9 15h1M11 15h1M13 15h2M16 15h2M19 15h1M21 15h2M25 15h1M27 15h1M4 16h1M6 16h1M8 16h2M12 16h1M14 16h2M17 16h1M21 16h3M25 16h1M27 16h2M0 17h6M7 17h3M12 17h1M14 17h2M17 17h1M19 17h4M25 17h2M28 17h1M1 18h1M3 18h2M6 18h1M10 18h1M12 18h2M17 18h2M20 18h1M22 18h2M27 18h2M0 19h1M8 19h1M10 19h1M12 19h1M15 19h1M17 19h6M24 19h2M27 19h1M1 20h1M3 20h9M16 20h1M20 20h5M8 21h1M10 21h2M13 21h1M15 21h6M24 21h1M26 21h3M0 22h7M10 22h2M14 22h3M18 22h3M22 22h1M24 22h2M27 22h2M0 23h1M6 23h1M9 23h1M11 23h4M16 23h3M20 23h1M24 23h2M27 23h1M0 24h1M2 24h3M6 24h1M8 24h1M10 24h3M14 24h2M18 24h1M20 24h5M27 24h1M0 25h1M2 25h3M6 25h1M11 25h5M20 25h1M23 25h2M26 25h1M0 26h1M2 26h3M6 26h1M8 26h1M12 26h2M17 26h1M19 26h1M23 26h3M28 26h1M0 27h1M6 27h1M10 27h2M15 27h1M19 27h2M27 27h1M0 28h7M8 28h1M11 28h1M16 28h1M20 28h3M25 28h1M27 28h2" />
<path stroke="#ffffff" d="M7 0h3M11 0h1M14 0h2M18 0h1M21 0h1M1 1h5M7 1h1M9 1h3M13 1h1M18 1h1M21 1h1M23 1h5M1 2h1M5 2h1M7 2h3M11 2h2M15 2h1M17 2h2M20 2h2M23 2h1M27 2h1M1 3h1M5 3h1M7 3h3M11 3h1M16 3h1M21 3h1M23 3h1M27 3h1M1 4h1M5 4h1M7 4h1M10 4h2M13 4h1M15 4h4M20 4h2M23 4h1M27 4h1M1 5h5M7 5h2M10 5h1M12 5h1M14 5h4M20 5h2M23 5h5M7 6h1M9 6h1M11 6h1M13 6h1M15 6h1M17 6h1M19 6h1M21 6h1M0 7h9M10 7h3M15 7h1M21 7h8M1 8h1M3 8h1M5 8h1M7 8h4M12 8h2M16 8h1M18 8h6M25 8h2M28 8h1M0 9h5M6 9h3M12 9h2M16 9h1M18 9h4M23 9h2M26 9h2M0 10h1M2 10h1M4 10h2M9 10h1M11 10h2M14 10h3M18 10h3M23 10h1M25 10h1M0 11h1M3 11h2M6 11h5M12 11h3M16 11h1M19 11h1M21 11h6M28 11h1M0 12h3M4 12h2M9 12h3M13 12h3M17 12h5M24 12h1M26 12h1M3 13h1M6 13h3M11 13h2M14 13h1M17 13h1M19 13h1M23 13h2M26 13h2M2 14h2M7 14h1M11 14h3M17 14h1M19 14h2M22 14h1M26 14h1M0 15h4M5 15h2M8 15h1M10 15h1M12 15h1M15 15h1M18 15h1M20 15h1M23 15h2M26 15h1M28 15h1M0 16h4M5 16h1M7 16h1M10 16h2M13 16h1M16 16h1M18 16h3M24 16h1M26 16h1M6 17h1M10 17h2M13 17h1M16 17h1M18 17h1M23 17h2M27 17h1M0 18h1M2 18h1M5 18h1M7 18h3M11 18h1M14 18h3M19 18h1M21 18h1M24 18h3M1 19h7M9 19h1M11 19h1M13 19h2M16 19h1M23 19h1M26 19h1M28 19h1M0 20h1M2 20h1M12 20h4M17 20h3M25 20h4M0 21h8M9 21h1M12 21h1M14 21h1M21 21h3M25 21h1M7 22h3M12 22h2M17 22h1M21 22h1M23 22h1M26 22h1M1 23h5M7 23h2M10 23h1M15 23h1M19 23h1M21 23h3M26 23h1M28 23h1M1 24h1M5 24h1M7 24h1M9 24h1M13 24h1M16 24h2M19 24h1M25 24h2M28 24h1M1 25h1M5 25h1M7 25h4M16 25h4M21 25h2M25 25h1M27 25h2M1 26h1M5 26h1M7 26h1M9 26h3M14 26h3M18 26h1M20 26h3M26 26h2M1 27h5M7 27h3M12 27h3M16 27h3M21 27h6M28 27h1M7 28h1M9 28h2M12 28h4M17 28h3M23 28h2M26 28h1" />
</svg>